<svg xmlns="http://www.w3.org/2000/svg" x="0px" y="0px" width="100" height="100" viewBox="0 0 50 50">
<path d="M 25 2 C 12.309295 2 2 12.309295 2 25 C 2 29.097522 3.0802754 32.943188 4.9628906 36.277344 L 4.9414062 36.289062 C 5.0281552 36.442782 5.1288762 36.583339 5.2226562 36.730469 C 5.226821 36.737469 5.2302031 36.744958 5.234375 36.751953 L 5.2167969 36.761719 C 5.3170257 36.929821 5.4328133 37.081905 5.5390625 37.244141 C 9.6142797 43.702103 16.808834 48 25 48 C 33.146176 48 40.305681 43.748408 44.392578 37.349609 L 44.419922 37.367188 C 44.503689 37.236316 44.571616 37.100168 44.648438 36.966797 L 44.664062 36.976562 C 44.855296 36.664099 45.019934 36.342886 45.183594 36.021484 C 45.20669 35.979326 45.229114 35.936849 45.251953 35.894531 C 45.290335 35.817188 45.334282 35.741856 45.371094 35.664062 C 47.046208 32.474607 48 28.848582 48 25 C 48 12.309295 37.690705 2 25 2 z M 25 4 C 36.609824 4 46 13.390176 46 25 C 46 25.096273 45.993475 25.191146 45.992188 25.287109 C 44.984765 22.187973 42.928996 19.414921 39.962891 17.599609 C 37.711461 16.221403 35.21626 15.570813 32.759766 15.554688 L 32.185547 15.550781 L 31.892578 16.046875 C 30.500424 18.410416 27.946351 20 25 20 C 20.569334 20 17 16.430666 17 12 C 17 7.5693339 20.569334 4 25 4 z M 14.40625 6.8828125 C 12.290456 9.3327926 11 12.513737 11 16 C 11 18.456164 11.640228 20.768258 12.751953 22.775391 L 13.042969 23.302734 L 13.644531 23.291016 C 16.488118 23.237696 19.268562 24.700591 20.769531 27.359375 C 22.946939 31.217746 21.592796 36.080376 17.734375 38.257812 C 14.124775 40.294831 9.4943985 39.293953 7.1386719 36.013672 C 5.1607223 32.81001 4 29.046615 4 25 C 4 17.260637 8.1847207 10.525247 14.40625 6.8828125 z M 15.648438 8.4921875 C 15.23624 9.5859661 15 10.764348 15 12 C 15 17.511334 19.488666 22 25 22 C 28.41554 22 31.383129 20.235147 33.185547 17.615234 C 35.153128 17.698444 37.121359 18.204898 38.917969 19.304688 C 41.559336 20.921252 43.356573 23.42445 44.183594 26.205078 C 43.442033 25.122396 42.480653 24.169638 41.318359 23.425781 C 40.158039 22.683187 38.899554 22.211704 37.619141 21.994141 C 33.777901 21.341452 29.732423 22.976221 27.503906 26.457031 L 27.503906 26.458984 L 26.519531 27.996094 L 26.808594 27.996094 C 25.63804 30.776615 25.78994 33.836355 27.130859 36.423828 C 26.1933 37.750312 25.019041 38.930656 23.537109 39.814453 C 20.794985 41.449678 17.637817 41.873489 14.71875 41.251953 C 16.09153 41.115554 17.454607 40.710343 18.716797 39.998047 C 23.041873 37.557261 24.662366 32.38512 22.996094 27.867188 L 23.353516 27.867188 L 22.511719 26.375 C 20.772297 23.293827 17.623105 21.55227 14.326172 21.373047 C 13.506747 19.749901 13 17.944016 13 16 C 13 13.150678 13.995072 10.544423 15.648438 8.4921875 z M 35.734375 23.84375 C 37.273657 23.806356 38.841369 24.214115 40.240234 25.109375 C 43.710138 27.33008 44.940817 31.891818 43.166016 35.511719 C 39.535138 41.778881 32.77356 46 25 46 C 21.236936 46 17.714613 45.002303 14.662109 43.273438 C 17.960178 43.888481 21.487852 43.366723 24.5625 41.533203 C 26.468095 40.39674 27.994714 38.868688 29.123047 37.128906 L 29.466797 36.597656 L 29.134766 36.058594 C 27.568478 33.524815 27.471708 30.22451 29.185547 27.541016 C 29.186504 27.539516 29.188453 27.538609 29.189453 27.537109 C 29.189453 27.537109 29.189453 27.535156 29.189453 27.535156 C 30.682542 25.203955 33.168905 23.906073 35.734375 23.84375 z"></path>
</svg>
